HIERARCHY
ROOT Hips
{
	OFFSET 0.000000 0.000000 0.000000
	CHANNELS 6 Xposition Yposition Zposition Zrotation Yrotation Xrotation
	JOINT LeftUpLeg
	{
		OFFSET 9.14595 0 0
		CHANNELS 3 Zrotation Yrotation Xrotation
		JOINT LeftLeg
		{
			OFFSET 0 -43.2472 0
			CHANNELS 3 Zrotation Yrotation Xrotation
			JOINT LeftFoot
			{
				OFFSET 0 -39.3015 0
				CHANNELS 3 Zrotation Yrotation Xrotation
				JOINT LeftToe
				{
					OFFSET 0 -6.36299 14.6734
					CHANNELS 3 Zrotation Yrotation Xrotation
					JOINT LToeEnd
					{
						OFFSET 0 0 4.22007
						CHANNELS 3 Zrotation Yrotation Xrotation
						End Site
						{
							OFFSET 0.0 0.0 0.0
						}
					}
				}
			}
		}
	}
	JOINT RightUpLeg
	{
		OFFSET -9.14595 0 0
		CHANNELS 3 Zrotation Yrotation Xrotation
		JOINT RightLeg
		{
			OFFSET 0 -43.2472 0
			CHANNELS 3 Zrotation Yrotation Xrotation
			JOINT RightFoot
			{
				OFFSET 0 -39.3015 0
				CHANNELS 3 Zrotation Yrotation Xrotation
				JOINT RightToe
				{
					OFFSET 0 -6.36299 14.6734
					CHANNELS 3 Zrotation Yrotation Xrotation
					JOINT RToeEnd
					{
						OFFSET 0 0 4.22007
						CHANNELS 3 Zrotation Yrotation Xrotation
						End Site
						{
							OFFSET 0.0 0.0 0.0
						}
					}
				}
			}
		}
	}
	JOINT Spine1
	{
		OFFSET 0 5.32198 0
		CHANNELS 3 Zrotation Yrotation Xrotation
		JOINT Spine2
		{
			OFFSET 0 9.88454 0
			CHANNELS 3 Zrotation Yrotation Xrotation
			JOINT Chest
			{
				OFFSET 0 10.4705 0
				CHANNELS 3 Zrotation Yrotation Xrotation
				JOINT Neck
				{
					OFFSET 0 20.2251 0
					CHANNELS 3 Zrotation Yrotation Xrotation
					JOINT Head
					{
						OFFSET 0 14.0184 1.95005
						CHANNELS 3 Zrotation Yrotation Xrotation
						JOINT HeadEnd
						{
							OFFSET 0 13.1925 0
							CHANNELS 3 Zrotation Yrotation Xrotation
							End Site
							{
								OFFSET 0.0 0.0 0.0
							}
						}
					}
				}
				JOINT LeftShoulder
				{
					OFFSET 4.32209 17.5503 0
					CHANNELS 3 Zrotation Yrotation Xrotation
					JOINT LeftArm
					{
						OFFSET 14.8714 0 0
						CHANNELS 3 Zrotation Yrotation Xrotation
						JOINT LeftForeArm
						{
							OFFSET 23.7007 0 0
							CHANNELS 3 Zrotation Yrotation Xrotation
							JOINT LeftHand
							{
								OFFSET 19.1112 0 0
								CHANNELS 3 Zrotation Yrotation Xrotation
								JOINT LeftHandPalm
								{
									OFFSET 0 0 0
									CHANNELS 3 Zrotation Yrotation Xrotation
									JOINT FZLeftThumb1
									{
										OFFSET -0.59711 -1.83115 3.06628
										CHANNELS 3 Zrotation Yrotation Xrotation
										JOINT FZLeftThumb2
										{
											OFFSET 1.29678 -1.36788 1.83268
											CHANNELS 3 Zrotation Yrotation Xrotation
											JOINT FZLeftThumb3
											{
												OFFSET 1.93031 -2.00253 2.64919
												CHANNELS 3 Zrotation Yrotation Xrotation
												End Site
												{
													OFFSET 0.0 0.0 0.0
												}
											}
										}
									}
									JOINT FZLeftIndex1
									{
										OFFSET 6.11343 -1.1628 2.75002
										CHANNELS 3 Zrotation Yrotation Xrotation
										JOINT FZLeftIndex2
										{
											OFFSET 3.88139 -0.928421 1.01818
											CHANNELS 3 Zrotation Yrotation Xrotation
											JOINT FZLeftIndex3
											{
												OFFSET 1.49382 -0.458603 0.322774
												CHANNELS 3 Zrotation Yrotation Xrotation
												End Site
												{
													OFFSET 0.0 0.0 0.0
												}
											}
										}
									}
									JOINT FZLeftMiddle1
									{
										OFFSET 6.12023 -1.14722 0.290579
										CHANNELS 3 Zrotation Yrotation Xrotation
										JOINT FZLeftMiddle2
										{
											OFFSET 4.24735 -1.08437 0.104351
											CHANNELS 3 Zrotation Yrotation Xrotation
											JOINT FZLeftMiddle3
											{
												OFFSET 2.04489 -0.741196 0.00429702
												CHANNELS 3 Zrotation Yrotation Xrotation
												End Site
												{
													OFFSET 0.0 0.0 0.0
												}
											}
										}
									}
									JOINT FZLeftRing1
									{
										OFFSET 5.77174 -1.28551 -1.90363
										CHANNELS 3 Zrotation Yrotation Xrotation
										JOINT FZLeftRing2
										{
											OFFSET 3.29582 -0.998688 -0.9005
											CHANNELS 3 Zrotation Yrotation Xrotation
											JOINT FZLeftRing3
											{
												OFFSET 2.49246 -0.971542 -0.650992
												CHANNELS 3 Zrotation Yrotation Xrotation
												End Site
												{
													OFFSET 0.0 0.0 0.0
												}
											}
										}
									}
									JOINT FZLeftPinky1
									{
										OFFSET 4.89582 -1.51128 -3.95336
										CHANNELS 3 Zrotation Yrotation Xrotation
										JOINT FZLeftPinky2
										{
											OFFSET 2.15219 -0.837952 -1.2451
											CHANNELS 3 Zrotation Yrotation Xrotation
											JOINT FZLeftPinky3
											{
												OFFSET 1.41002 -0.66391 -0.765082
												CHANNELS 3 Zrotation Yrotation Xrotation
												End Site
												{
													OFFSET 0.0 0.0 0.0
												}
											}
										}
									}
								}
							}
						}
					}
				}
				JOINT RightShoulder
				{
					OFFSET -4.32209 17.5509 0
					CHANNELS 3 Zrotation Yrotation Xrotation
					JOINT RightArm
					{
						OFFSET -14.8714 0 0
						CHANNELS 3 Zrotation Yrotation Xrotation
						JOINT RightForeArm
						{
							OFFSET -23.7008 0 0
							CHANNELS 3 Zrotation Yrotation Xrotation
							JOINT RightHand
							{
								OFFSET -19.1112 0.00035344 0
								CHANNELS 3 Zrotation Yrotation Xrotation
								JOINT RightHandPalm
								{
									OFFSET 0 0 0
									CHANNELS 3 Zrotation Yrotation Xrotation
									JOINT FZRightThumb1
									{
										OFFSET 0.597107 -1.83099 3.06628
										CHANNELS 3 Zrotation Yrotation Xrotation
										JOINT FZRightThumb2
										{
											OFFSET -1.29681 -1.36801 1.83268
											CHANNELS 3 Zrotation Yrotation Xrotation
											JOINT FZRightThumb3
											{
												OFFSET -1.9303 -2.002 2.64919
												CHANNELS 3 Zrotation Yrotation Xrotation
												End Site
												{
													OFFSET 0.0 0.0 0.0
												}
											}
										}
									}
									JOINT FZRightIndex1
									{
										OFFSET -6.1134 -1.162 2.75002
										CHANNELS 3 Zrotation Yrotation Xrotation
										JOINT FZRightIndex2
										{
											OFFSET -3.8814 -0.929001 1.01818
											CHANNELS 3 Zrotation Yrotation Xrotation
											JOINT FZRightIndex3
											{
												OFFSET -1.4938 -0.457993 0.322774
												CHANNELS 3 Zrotation Yrotation Xrotation
												End Site
												{
													OFFSET 0.0 0.0 0.0
												}
											}
										}
									}
									JOINT FZRightMiddle1
									{
										OFFSET -6.12019 -1.147 0.29058
										CHANNELS 3 Zrotation Yrotation Xrotation
										JOINT FZRightMiddle2
										{
											OFFSET -4.24741 -1.084 0.10435
											CHANNELS 3 Zrotation Yrotation Xrotation
											JOINT FZRightMiddle3
											{
												OFFSET -2.0449 -0.740997 0.00430012
												CHANNELS 3 Zrotation Yrotation Xrotation
												End Site
												{
													OFFSET 0.0 0.0 0.0
												}
											}
										}
									}
									JOINT FZRightRing1
									{
										OFFSET -5.7717 -1.285 -1.90363
										CHANNELS 3 Zrotation Yrotation Xrotation
										JOINT FZRightRing2
										{
											OFFSET -3.2959 -0.998993 -0.9005
											CHANNELS 3 Zrotation Yrotation Xrotation
											JOINT FZRightRing3
											{
												OFFSET -2.4924 -0.971008 -0.65099
												CHANNELS 3 Zrotation Yrotation Xrotation
												End Site
												{
													OFFSET 0.0 0.0 0.0
												}
											}
										}
									}
									JOINT FZRightPinky1
									{
										OFFSET -4.8958 -1.511 -3.95337
										CHANNELS 3 Zrotation Yrotation Xrotation
										JOINT FZRightPinky2
										{
											OFFSET -2.1522 -0.837997 -1.24509
											CHANNELS 3 Zrotation Yrotation Xrotation
											JOINT FZRightPinky3
											{
												OFFSET -1.41 -0.664002 -0.76508
												CHANNELS 3 Zrotation Yrotation Xrotation
												End Site
												{
													OFFSET 0.0 0.0 0.0
												}
											}
										}
									}
								}
							}
						}
					}
				}
			}
		}
	}
}
MOTION
Frames: 4
Frame Time: 0.00833333
22.602312 912.282349 365.166443 -2.060224 -1.310184 -1.193446 10.607635 -3.159513 -20.630433 -7.473372 4.524790 41.206701 -3.223415 -11.034307 -15.938118 6.045825 12.463084 -7.897071 0.000000 -0.000010 4.660430 -5.083341 -0.671634 11.512387 8.683628 -8.053706 17.926300 6.669611 -8.386126 -28.577425 -1.952702 22.086736 -2.277072 -0.000006 -0.000017 2.048773 5.618201 5.286292 10.075480 -8.382011 4.470118 6.829072 -2.347780 -5.655164 -8.943554 1.404672 -6.757780 -8.263908 8.390767 3.674698 10.158449 -0.693429 -2.204969 -7.153117 -2.188499 -17.782656 3.920873 10.560407 -58.813072 -37.665182 -40.395712 -46.728425 96.233601 139.170828 47.858653 131.680718 -52.280319 25.141846 31.384391 0.000000 0.000000 0.000000 0.000000 0.000000 0.000000 0.000000 0.000000 0.000000 0.000000 0.000000 0.000000 0.000000 0.000000 0.000000 0.000000 0.000000 0.000000 0.000000 0.000000 0.000000 0.000000 0.000000 0.000000 0.000000 0.000000 0.000000 0.000000 0.000000 0.000000 0.000000 0.000000 0.000000 0.000000 0.000000 0.000000 0.000000 0.000000 0.000000 0.000000 0.000000 0.000000 0.000000 0.000000 0.000000 -30.242781 17.211870 -12.847171 27.885576 1.053363 -12.497422 3.070509 -24.616121 -0.110948 2.430864 15.777302 -22.118513 -10.039279 -16.319712 31.084908 0.000000 0.000000 0.000000 0.000000 0.000000 0.000000 0.000000 0.000000 0.000000 0.000000 0.000000 0.000000 0.000000 0.000000 0.000000 0.000000 0.000000 0.000000 0.000000 0.000000 0.000000 0.000000 0.000000 0.000000 0.000000 0.000000 0.000000 0.000000 0.000000 0.000000 0.000000 0.000000 0.000000 0.000000 0.000000 0.000000 0.000000 0.000000 0.000000 0.000000 0.000000 0.000000 0.000000 0.000000 0.000000
-1.159635 914.726318 381.183716 -2.922406 8.314612 0.459045 11.915048 -12.859162 -25.608776 -8.518266 1.906576 39.097657 -4.385166 -11.210398 -10.907040 5.971969 16.490055 -9.060642 -0.000001 -0.000007 4.213572 -1.824224 -13.997754 12.298593 5.449223 -2.608336 12.989368 5.080607 -6.342502 -22.434057 -2.813213 17.151534 -5.322386 0.000003 0.000014 2.235537 5.182696 -4.344398 6.714526 -8.210265 3.095394 7.822706 -1.460158 -5.147011 -8.708982 3.334607 -5.592103 -7.642025 7.410948 3.636227 7.987166 -1.559351 -1.550211 -6.286691 -0.653405 -15.894534 2.103154 6.862614 -57.519186 -36.397296 -41.205569 -46.477735 96.520599 142.895143 49.700007 130.195525 -47.676037 25.910757 34.017243 0.000000 0.000000 0.000000 0.000000 0.000000 0.000000 0.000000 0.000000 0.000000 0.000000 0.000000 0.000000 0.000000 0.000000 0.000000 0.000000 0.000000 0.000000 0.000000 0.000000 0.000000 0.000000 0.000000 0.000000 0.000000 0.000000 0.000000 0.000000 0.000000 0.000000 0.000000 0.000000 0.000000 0.000000 0.000000 0.000000 0.000000 0.000000 0.000000 0.000000 0.000000 0.000000 0.000000 0.000000 0.000000 -26.994484 14.989950 -16.035175 25.821841 4.142349 -4.380453 4.720672 -22.735556 -19.841269 6.140784 17.066193 -4.662554 -10.748099 -21.255729 30.240428 0.000000 0.000000 0.000000 0.000000 0.000000 0.000000 0.000000 0.000000 0.000000 0.000000 0.000000 0.000000 0.000000 0.000000 0.000000 0.000000 0.000000 0.000000 0.000000 0.000000 0.000000 0.000000 0.000000 0.000000 0.000000 0.000000 0.000000 0.000000 0.000000 0.000000 0.000000 0.000000 0.000000 0.000000 0.000000 0.000000 0.000000 0.000000 0.000000 0.000000 0.000000 0.000000 0.000000 0.000000 0.000000
-11.126967 916.620605 393.584717 -4.653300 11.259489 -0.422825 14.914994 -17.499159 -26.123290 -10.262994 0.588858 40.595145 -5.260392 -5.189559 -13.993349 5.663052 13.674739 -8.585041 -0.000001 -0.000015 4.493170 1.763482 -13.529791 11.924050 3.572683 -3.252698 16.367216 5.415544 -3.564585 -21.180556 -4.575986 11.394389 -11.289113 0.000005 0.000009 3.898068 5.690207 -8.113628 6.552094 -7.615940 2.570020 8.500437 0.103323 -4.426147 -9.319603 2.926134 -3.774143 -5.700586 6.506078 3.321810 5.321830 -1.588820 -1.715774 -5.387416 0.067806 -13.335152 2.353589 6.992853 -58.381417 -40.821542 -43.091133 -44.644548 98.910396 146.731444 52.253040 129.320533 -43.334542 28.002975 37.076137 0.000000 0.000000 0.000000 0.000000 0.000000 0.000000 0.000000 0.000000 0.000000 0.000000 0.000000 0.000000 0.000000 0.000000 0.000000 0.000000 0.000000 0.000000 0.000000 0.000000 0.000000 0.000000 0.000000 0.000000 0.000000 0.000000 0.000000 0.000000 0.000000 0.000000 0.000000 0.000000 0.000000 0.000000 0.000000 0.000000 0.000000 0.000000 0.000000 0.000000 0.000000 0.000000 0.000000 0.000000 0.000000 -21.881236 15.750176 -12.383424 18.985917 9.142727 -19.014430 0.763663 -20.848440 -14.268877 7.916513 12.664901 15.488358 -7.820136 -24.602552 17.783651 0.000000 0.000000 0.000000 0.000000 0.000000 0.000000 0.000000 0.000000 0.000000 0.000000 0.000000 0.000000 0.000000 0.000000 0.000000 0.000000 0.000000 0.000000 0.000000 0.000000 0.000000 0.000000 0.000000 0.000000 0.000000 0.000000 0.000000 0.000000 0.000000 0.000000 0.000000 0.000000 0.000000 0.000000 0.000000 0.000000 0.000000 0.000000 0.000000 0.000000 0.000000 0.000000 0.000000 0.000000 0.000000
-11.202277 919.932495 406.547394 -5.652280 8.964515 -2.137040 17.116594 -17.238945 -22.202194 -10.811735 3.589833 39.951319 -5.087550 -4.873568 -17.490023 5.950265 11.586815 -6.982004 -0.000000 -0.000003 4.446984 0.719800 -10.093937 12.042634 4.346066 1.668774 22.708802 4.951462 0.584772 -19.174877 -4.917395 1.275909 -21.449946 -0.000002 -0.000002 7.966281 5.810301 -6.635771 7.054992 -7.629657 3.061998 9.375543 1.107235 -4.871921 -9.000930 4.035257 -1.273119 -4.685141 4.995291 2.707042 2.680378 -1.657496 -2.338470 -3.876047 0.422624 -10.310909 3.360616 9.372922 -60.404000 -44.837703 -43.162126 -43.725637 100.194671 152.144398 54.254251 131.837712 -39.505511 28.562314 39.679325 0.000000 0.000000 0.000000 0.000000 0.000000 0.000000 0.000000 0.000000 0.000000 0.000000 0.000000 0.000000 0.000000 0.000000 0.000000 0.000000 0.000000 0.000000 0.000000 0.000000 0.000000 0.000000 0.000000 0.000000 0.000000 0.000000 0.000000 0.000000 0.000000 0.000000 0.000000 0.000000 0.000000 0.000000 0.000000 0.000000 0.000000 0.000000 0.000000 0.000000 0.000000 0.000000 0.000000 0.000000 0.000000 -12.549951 15.159614 -6.497521 10.447226 18.621666 -42.314764 0.711522 -7.492966 0.495785 -0.310155 2.393789 34.211808 0.931790 -32.367964 1.319175 0.000000 0.000000 0.000000 0.000000 0.000000 0.000000 0.000000 0.000000 0.000000 0.000000 0.000000 0.000000 0.000000 0.000000 0.000000 0.000000 0.000000 0.000000 0.000000 0.000000 0.000000 0.000000 0.000000 0.000000 0.000000 0.000000 0.000000 0.000000 0.000000 0.000000 0.000000 0.000000 0.000000 0.000000 0.000000 0.000000 0.000000 0.000000 0.000000 0.000000 0.000000 0.000000 0.000000 0.000000 0.000000
